<svg xmlns="http://www.w3.org/2000/svg" viewBox="0 0 541.11 142.1"><defs><style>.cls-1{fill:#7cd2f6;}.cls-2{fill:#a7d16a;}.cls-3{fill:#fff;}.cls-4{fill:none;}</style></defs><title>disco</title><g id="color"><path class="cls-1" d="M666.59,362.4a68.26,68.26,0,1,1,25-93.24A68.27,68.27,0,0,1,666.59,362.4Z" transform="translate(-162.39 -232.22)"/><path class="cls-2" d="M637.27,282.86a5.83,5.83,0,0,0-1.85.69c-.52.41.29.95,0,1.18-.5.41-.87,1.14-1.95,1.07-2.27-.14-5.75-3.07-7.82-4.18,3.34-3.44-1.94-3.95-4-3.78-2.67.22-7.28,0-9.68,1.34-1.68.94-3.92,4.84-5.27,6.39-1.87,2.16-3.76,4-5,6.62-4.47,9.48,2.42,20.36,13.25,19.09,3-.35,6.16-2.24,8.83.25,2,1.84.92,3.57,1.44,5.71.46,1.86,2.51,3,3.22,4.71,1.36,3.26.5,5.3-.47,8.32-1.28,4,2,8.65,3.31,12.46.65,1.92,2.53,7.3,4.39,8.14,2.91,1.33,7.47-2.64,9.21-4.78,1.36-1.67.92-3.36,1.83-4.93s2.24-2.2,2.93-4.38c.75-2.35,1.52-2.93,3.1-4.65,2.54-2.76,2.14-4.37,1.13-7.65-2.11-6.8,5.55-10,9-15,3.6-5.21-3.36-3.48-6.09-5.26s-4-5.32-5.39-8.21-2.47-7.23-4.71-9.6C645,284.61,639.72,283.76,637.27,282.86Z" transform="translate(-162.39 -232.22)"/><path class="cls-2" d="M672.51,328.49l-3.27,11c-.76,2.56-3.45,10.95-7.22,5.58-1.43-2-.27-4.72.53-6.6,1-2.37-.35-3.56.35-5.8.81-2.58,4.13-2.66,5.7-4.47,1.1-1.26,1.77-3.27,2.57-4.75C671.62,325.13,672.06,326.81,672.51,328.49Z" transform="translate(-162.39 -232.22)"/><path class="cls-2" d="M691.57,269.16a68.16,68.16,0,0,0-54.23-34l-8.93,11.19-19.13,6.71-5.13,12.44,7.92,11.09.84-2.34a9.84,9.84,0,0,1,9.27-6.53h13.05l15,5.27L655.4,278v3.13l7.18,13.76,2.09-.78a33.27,33.27,0,0,0,12-7.69l-1.73-2.6a1.24,1.24,0,0,1,1-1.94h4.19a4.18,4.18,0,0,1,3.18,1.47l3.42,4a4,4,0,0,1,.75,1.29L691.31,299l1.79-1.79a6.14,6.14,0,0,0,1.73-4.28,4.63,4.63,0,0,1,1.55-3.37l1.37-1.23a4.52,4.52,0,0,1,1.15-.74A68.36,68.36,0,0,0,691.57,269.16Z" transform="translate(-162.39 -232.22)"/><path class="cls-2" d="M589.45,271.82l3.27-3.49a8.93,8.93,0,0,0,1.72-9.49h0a10,10,0,0,0-7.9-6.08A68.27,68.27,0,0,0,564.84,294a58.72,58.72,0,0,1,5.2,4.82c0,.41,9.55-1.2,9.55-1.2l-4.94-7.23,7.09-5.07Z" transform="translate(-162.39 -232.22)"/><path class="cls-2" d="M596.09,339.84a5.86,5.86,0,0,0,3.76-7.38l-.88-2.71a5.88,5.88,0,0,1,0-3.64h0a5.86,5.86,0,0,0-4.44-7.57l-6.9-1.35L575,307.61,564.62,311a68.42,68.42,0,0,0,25.61,45.95l3.1-16.21Z" transform="translate(-162.39 -232.22)"/><path class="cls-3" d="M665.19,360l-.1.06a2.78,2.78,0,0,0,1.39,5.18,2.72,2.72,0,0,0,1.39-.38l.11-.06a2.78,2.78,0,1,0-2.79-4.8Z" transform="translate(-162.39 -232.22)"/><path class="cls-3" d="M694,267.77a71,71,0,1,0-85,102.58,71,71,0,0,0,48.85-.72,2.78,2.78,0,0,0-2-5.18,65.09,65.09,0,0,1-62.61-8.6l2.49-13,1.2-.39a8.64,8.64,0,0,0,5.54-10.88l-.88-2.71a3,3,0,0,1,0-1.91,8.65,8.65,0,0,0-6.55-11.17l-6.27-1.22-12.08-9.19a2.79,2.79,0,0,0-2.54-.43l-7.08,2.3a66.1,66.1,0,0,1,0-7.58l.58.55a2.88,2.88,0,0,0,2.71,1.39,40.82,40.82,0,0,0,5-.56c2.34-.35,4.67-.74,4.7-.74a2.78,2.78,0,0,0,1.83-4.3l-3.4-5,4.87-3.49a2.56,2.56,0,0,0,.79-.88l7.56-13.19,3-3.26A11.73,11.73,0,0,0,597,257.78a12.85,12.85,0,0,0-5.06-5.95,65.51,65.51,0,0,1,39.75-14l-5,6.22-18.38,6.44a2.77,2.77,0,0,0-1.64,1.56l-5.14,12.45a2.78,2.78,0,0,0,.31,2.67l7.5,10.5a26.1,26.1,0,0,0-3.37,4.17c-.55.78-1.07,1.51-1.42,1.93l-.93,1.05a26.08,26.08,0,0,0-4.47,6.2,16.53,16.53,0,0,0,1.38,16.71,15.55,15.55,0,0,0,14.7,6.32,24.22,24.22,0,0,0,2.72-.55c2.38-.59,3.13-.65,3.89.07.37.34.41.41.4,1.59a10.55,10.55,0,0,0,.25,2.75,8.77,8.77,0,0,0,2.34,3.83,6.48,6.48,0,0,1,1,1.28c.87,2.08.49,3.23-.34,5.74l-.21.66c-1.26,3.89.49,7.74,2,11.14a32.16,32.16,0,0,1,1.29,3.07c2.49,7.4,4.37,9.1,5.87,9.78a5.73,5.73,0,0,0,2.42.52c4,0,8.17-3.72,10.09-6.07a8.51,8.51,0,0,0,1.72-4.05,4.32,4.32,0,0,1,.36-1.24,7.14,7.14,0,0,1,.91-1.17,9.62,9.62,0,0,0,2.27-3.77,6.05,6.05,0,0,1,1.88-2.95l.61-.66c3.7-4,2.75-7.1,1.74-10.35-.85-2.74.63-4.49,4.22-7.83a29.65,29.65,0,0,0,4.41-4.74c.54-.79,2.2-3.19,1.17-5.56s-3.55-2.72-5.6-3a9.11,9.11,0,0,1-2.42-.56c-1.72-1.13-2.77-3.47-3.79-5.73-.2-.46-.4-.9-.6-1.33-.36-.77-.72-1.71-1.11-2.69-1-2.62-2.15-5.58-4.1-7.65-1.75-1.85-5.05-2.74-8-3.53-1-.27-1.91-.52-2.52-.74a2.7,2.7,0,0,0-1.59-.1,7.27,7.27,0,0,0-3,1.22,3.52,3.52,0,0,0-1,1.33,33.4,33.4,0,0,1-3.27-2l0,0a4,4,0,0,0-.25-2.67c-1.55-3.28-6.7-3-7.71-2.93-.58,0-1.31.07-2.08.1-1.21,0-2.55.09-3.88.24l.07-.19a7.09,7.09,0,0,1,6.66-4.69h1.58a2.78,2.78,0,0,0,0-5.55h-1.58a12.67,12.67,0,0,0-10.74,6l-4.14-5.8,4.07-9.87,18-6.3a2.72,2.72,0,0,0,1.25-.89l8-10a65.48,65.48,0,0,1,50.6,32.43,64.76,64.76,0,0,1,6.54,15.89l-1.18,1.05a7.37,7.37,0,0,0-2.47,5.39v.07l-1.92-5.27a6.73,6.73,0,0,0-1.25-2.15l-3.42-4a6.94,6.94,0,0,0-5.29-2.44H676a4,4,0,0,0-3.34,6.25l.42.63a30.73,30.73,0,0,1-9.16,5.45l-5.74-11V278a2.77,2.77,0,0,0-.86-2L652.15,271a2.73,2.73,0,0,0-1-.61l-4.65-1.64a2.78,2.78,0,1,0-1.84,5.24l4.09,1.43,3.87,3.7v2a2.7,2.7,0,0,0,.32,1.28l7.18,13.76a2.77,2.77,0,0,0,3.42,1.32l2.09-.77a36.28,36.28,0,0,0,13-8.34,2.77,2.77,0,0,0,.35-3.5l-.15-.22h1.33a1.4,1.4,0,0,1,1.07.5l3.42,4a1.45,1.45,0,0,1,.26.43l3.77,10.38a2.76,2.76,0,0,0,2,1.76,3.07,3.07,0,0,0,.6.07,2.78,2.78,0,0,0,2-.82l1.79-1.79a8.63,8.63,0,0,0,2.3-4.18A65.71,65.71,0,0,1,673,354.75a2.78,2.78,0,0,0,3.43,4.37A71.05,71.05,0,0,0,694,267.77ZM574.51,310.7,586,319.4a2.72,2.72,0,0,0,1.15.51l6.89,1.35a3.09,3.09,0,0,1,2.34,4,8.61,8.61,0,0,0,0,5.36l.88,2.7a3.09,3.09,0,0,1-2,3.89l-2.75.89a2.78,2.78,0,0,0-1.87,2.12l-2.22,11.59A66.45,66.45,0,0,1,575.74,336a65.26,65.26,0,0,1-8.06-23.11ZM567.27,299a2,2,0,0,0,0,.35A2,2,0,0,1,567.27,299Zm24.61-39.07a6.17,6.17,0,0,1-1.19,6.53l-3.27,3.5a3.75,3.75,0,0,0-.38.51l-7.41,12.95L573,288.1a2.77,2.77,0,0,0-.68,3.82l2.47,3.61c-1.42.22-2.7.39-3.55.48l-.51-.48c-.66-.61-1.57-1.43-2.94-2.62a65.6,65.6,0,0,1,19.55-37.13A7.26,7.26,0,0,1,591.88,259.9Zm27.65,20.82c.84,0,1.63-.05,2.34-.11a7.75,7.75,0,0,1,1.18,0,2.81,2.81,0,0,0-.15,1.44,2.77,2.77,0,0,0,1.43,2c.52.27,1.24.76,2,1.27,2.17,1.44,4.63,3.08,6.94,3.23a4.59,4.59,0,0,0,3.77-1.57l.12-.12a3.07,3.07,0,0,0,.74-.91l1.39.39c1.64.44,4.7,1.27,5.38,2,1.2,1.28,2.13,3.7,3,5.84.41,1.08.81,2.1,1.25,3,.19.41.38.82.57,1.25,1.28,2.85,2.73,6.09,5.81,8.1a11.32,11.32,0,0,0,4.62,1.41l.6.1a27.2,27.2,0,0,1-3.52,3.69c-3.44,3.2-7.71,7.18-5.74,13.54.93,3,1,3.32-.52,4.94l-.58.62a11.34,11.34,0,0,0-3.12,5.07,4.46,4.46,0,0,1-1.13,1.77,12.59,12.59,0,0,0-1.56,2.05,9.09,9.09,0,0,0-1,2.95,3.51,3.51,0,0,1-.58,1.63,16,16,0,0,1-3.51,3.1,4.45,4.45,0,0,1-2.32.92c-.3-.31-1.37-1.7-3-6.51a37.85,37.85,0,0,0-1.49-3.59c-1.18-2.61-2.41-5.3-1.81-7.14l.21-.64c.95-2.89,1.84-5.62.18-9.6a9.77,9.77,0,0,0-2-2.88,5.21,5.21,0,0,1-1.06-1.41,6.11,6.11,0,0,1-.09-1.41,6.9,6.9,0,0,0-2.15-5.68c-3.07-2.87-6.66-2-9-1.4a16.61,16.61,0,0,1-2,.42,10,10,0,0,1-9.56-4,11,11,0,0,1-.86-11.1,21.07,21.07,0,0,1,3.6-4.88l1-1.11c.54-.62,1.14-1.47,1.77-2.36a19.81,19.81,0,0,1,2.76-3.43C614.55,280.9,617.43,280.8,619.53,280.72Z" transform="translate(-162.39 -232.22)"/><path class="cls-3" d="M665.21,349.55c2.83-.47,5-3.41,6.69-9.27l3.27-11a2.86,2.86,0,0,0,0-1.51l-1.33-5a2.78,2.78,0,0,0-5.13-.61c-.3.56-.57,1.15-.84,1.73a12.27,12.27,0,0,1-1.38,2.52,6.22,6.22,0,0,1-1.63,1c-1.6.77-3.79,1.83-4.63,4.49a8.15,8.15,0,0,0-.18,3.92,2.57,2.57,0,0,1-.07,1.64l0,.06c-.88,2.07-2.53,5.93-.22,9.21,1.64,2.34,3.37,2.95,4.72,2.95A5.69,5.69,0,0,0,665.21,349.55Zm-.92-6.08c-.53-.75.26-2.61.79-3.84l0-.07a7.79,7.79,0,0,0,.45-4.62,3,3,0,0,1,0-1.44c.11-.35.76-.69,1.74-1.16.43-.21.91-.44,1.39-.72l-2.1,7.08a16.74,16.74,0,0,1-2.12,5Z" transform="translate(-162.39 -232.22)"/><path class="cls-3" d="M636.15,265.15a2.77,2.77,0,1,0-1.84,5.23l.19.07a2.66,2.66,0,0,0,.92.16,2.78,2.78,0,0,0,.92-5.4Z" transform="translate(-162.39 -232.22)"/><path class="cls-3" d="M200.16,277.06V367.6H162.39v-127h49.22q32.38,0,50.71,14.7Q284.1,272.87,284.1,303q0,28.85-18.61,47.08t-47.93,18.24q-3.44,0-11.25-.38V330.66h6q33,0,33-27.63,0-26-32.48-26Z" transform="translate(-162.39 -232.22)"/><path class="cls-3" d="M334.06,274.83V367.6h-34.8V274.83Zm-17.3-41.41a17,17,0,0,1,12.23,5,16.45,16.45,0,0,1,.28,23.68,19.14,19.14,0,0,1-25,0,16.47,16.47,0,0,1,.28-23.68A17,17,0,0,1,316.76,233.42Z" transform="translate(-162.39 -232.22)"/><path class="cls-3" d="M416.79,240v36.2a21.49,21.49,0,0,0-6.33-1.4,9.89,9.89,0,0,0-7.35,3.16,10.57,10.57,0,0,0-3.07,7.64q0,3.81,3.35,9.67l2.88,5q7.82,13.57,7.82,26.24a42.11,42.11,0,0,1-13.17,31.35q-13.17,12.85-32.15,12.85a42.16,42.16,0,0,1-18-4.19V329.82q5.4,3.45,9.58,3.45a12.21,12.21,0,0,0,8.24-2.84,9,9,0,0,0,3.3-7.12q0-2.79-5.3-12.19-8.48-14.88-8.47-29.78a42.52,42.52,0,0,1,12.79-30.93q12.79-13,30.57-13A46.68,46.68,0,0,1,416.79,240Z" transform="translate(-162.39 -232.22)"/><path class="cls-3" d="M549.53,342.36A60.78,60.78,0,0,1,540.12,354q-17.36,16.74-45.27,16.75-28.38,0-47.5-19t-19.12-47.23q0-28.38,19.49-47.73t48.06-19.36q28.11,0,46.9,19c1.12,1.13,2.19,2.31,3.23,3.55L511.2,280.38q-6.54-5.55-16.35-5.55-12.09,0-20,8.38T467,304.51q0,12.48,7.72,20.61a25.8,25.8,0,0,0,19.55,8.15q12,0,19.12-7.17a24.42,24.42,0,0,0,2.49-3Z" transform="translate(-162.39 -232.22)"/><line class="cls-4" x1="385.25" y1="110.61" x2="384.37" y2="110.11"/><line class="cls-4" x1="353.52" y1="90.93" x2="352.62" y2="90.42"/></g></svg>